<?xml version="1.0" standalone="no"?>
<!DOCTYPE svg PUBLIC "-//W3C//DTD SVG 20010904//EN"
 "http://www.w3.org/TR/2001/REC-SVG-20010904/DTD/svg10.dtd">
<svg version="1.0" xmlns="http://www.w3.org/2000/svg"
 width="512.000000pt" height="512.000000pt" viewBox="0 0 512.000000 512.000000"
 preserveAspectRatio="xMidYMid meet">

<g transform="translate(0.000000,512.000000) scale(0.100000,-0.100000)"
fill="#000000" stroke="none">
<path d="M1960 4469 c-425 -18 -692 -62 -747 -121 -71 -77 -277 -427 -415
-706 -56 -111 -104 -204 -107 -207 -4 -2 -91 17 -193 43 -185 46 -187 46 -223
29 -70 -33 -80 -128 -19 -176 13 -10 82 -33 154 -51 71 -18 130 -34 130 -35 0
-2 -58 -53 -129 -114 -125 -107 -224 -210 -277 -290 -30 -45 -84 -253 -110
-426 -17 -109 -19 -188 -19 -830 l0 -710 27 -51 c40 -76 70 -107 140 -145 l63
-34 190 0 c188 0 191 0 247 28 32 16 75 48 97 74 41 46 81 134 81 178 0 14 3
25 8 25 4 0 45 -4 92 -10 475 -53 1398 -97 1805 -85 573 16 1238 58 1473 91
40 6 42 5 42 -19 0 -46 39 -133 81 -180 22 -26 65 -58 97 -74 56 -28 59 -28
247 -28 l190 0 63 34 c70 38 100 69 140 145 l27 51 0 710 c0 645 -2 721 -19
830 -26 170 -82 382 -111 427 -50 76 -158 189 -280 293 -69 59 -125 108 -125
110 0 1 59 17 130 35 72 18 141 41 154 51 61 48 51 143 -19 176 -36 17 -38 17
-223 -29 -102 -26 -189 -45 -193 -43 -3 3 -51 96 -107 207 -138 279 -344 629
-415 706 -38 41 -206 80 -437 101 -313 29 -1068 39 -1510 20z m1210 -209 c219
-15 584 -59 595 -72 36 -43 246 -412 370 -652 l98 -189 -79 6 c-625 51 -908
60 -1774 54 -415 -3 -822 -10 -905 -16 -82 -6 -246 -18 -363 -27 -117 -9 -215
-14 -217 -13 -7 8 344 667 410 770 38 59 47 67 81 72 22 3 104 15 184 27 265
39 441 48 960 49 272 0 560 -4 640 -9z m-2710 -1649 c155 -39 388 -114 400
-128 4 -5 22 -51 39 -103 18 -52 50 -129 72 -169 21 -41 36 -77 34 -79 -9 -9
-302 38 -425 68 -127 31 -328 95 -343 110 -9 8 15 206 35 292 6 26 16 48 23
48 6 0 80 -18 165 -39z m4388 -13 c12 -51 41 -249 42 -275 0 -37 -392 -145
-649 -178 -67 -9 -125 -15 -127 -12 -2 2 13 34 33 72 20 38 53 117 74 175 l37
105 63 23 c140 52 448 138 505 141 6 1 16 -23 22 -51z m-2561 -133 c12 -49 23
-96 23 -102 0 -10 -124 -13 -586 -13 l-585 0 -23 53 c-42 94 -42 94 3 101 178
28 621 54 915 52 l230 -1 23 -90z m1333 75 c193 -15 411 -37 417 -43 2 -3 -8
-36 -24 -74 l-29 -68 -587 -3 c-419 -1 -587 1 -587 9 0 11 37 163 46 188 4 12
53 13 312 8 169 -3 372 -11 452 -17z m194 -441 c-67 -70 -123 -87 -439 -128
-291 -38 -432 -46 -820 -46 -442 1 -653 16 -1015 76 -133 22 -182 43 -234 98
l-30 31 1284 0 1284 0 -30 -31z m-3069 -423 c114 -62 140 -223 52 -323 -136
-154 -382 -44 -365 162 13 152 175 236 313 161z m3840 0 c122 -66 141 -244 35
-340 -107 -96 -264 -64 -332 68 -30 59 -22 151 18 208 65 93 178 119 279 64z
m-1455 -406 c276 -17 617 -56 638 -73 16 -13 45 -67 39 -73 -2 -2 -98 -11
-213 -19 -678 -48 -1406 -48 -2061 0 -111 8 -207 15 -213 15 -17 0 -11 28 13
54 19 21 39 27 167 45 180 25 311 40 460 50 170 12 980 12 1170 1z"/>
</g>
</svg>
